<svg width="17" height="18" viewBox="0 0 17 18" fill="none" xmlns="http://www.w3.org/2000/svg">
<path d="M10.756 10.4C10.756 9.77068 10.5373 9.23201 10.1 8.78401C9.66266 8.33601 9.124 8.11201 8.484 8.11201C7.844 8.11201 7.30533 8.33601 6.868 8.78401C6.43066 9.23201 6.20666 9.77068 6.196 10.4C6.18533 11.0293 6.40933 11.568 6.868 12.016C7.32666 12.464 7.86533 12.688 8.484 12.688C9.10266 12.688 9.64133 12.464 10.1 12.016C10.5587 11.568 10.7773 11.0293 10.756 10.4ZM11.988 10.4C11.988 11.3707 11.6467 12.2027 10.964 12.896C10.2813 13.5893 9.45466 13.9307 8.484 13.92C7.51333 13.9093 6.68133 13.568 5.988 12.896C5.29466 12.224 4.95333 11.392 4.964 10.4C4.97466 9.40801 5.316 8.57601 5.988 7.90401C6.66 7.23201 7.492 6.89068 8.484 6.88001C9.476 6.86934 10.3027 7.21068 10.964 7.90401C11.6253 8.59734 11.9667 9.42934 11.988 10.4ZM12.964 6.73601C12.964 6.96001 12.884 7.15201 12.724 7.31201C12.564 7.47201 12.3667 7.55201 12.132 7.55201C11.8973 7.55201 11.7053 7.47201 11.556 7.31201C11.4067 7.15201 11.3267 6.96001 11.316 6.73601C11.3053 6.51201 11.3853 6.32001 11.556 6.16001C11.7267 6.00001 11.9187 5.92001 12.132 5.92001C12.3453 5.92001 12.5427 6.00001 12.724 6.16001C12.9053 6.32001 12.9853 6.51201 12.964 6.73601ZM8.484 4.76801H6.852L5.988 4.80001L5.076 4.88001L4.436 5.05601C4.13733 5.17334 3.876 5.34401 3.652 5.56801C3.428 5.79201 3.252 6.05334 3.124 6.35201C3.06 6.52268 3.00666 6.73601 2.964 6.99201C2.92133 7.24801 2.88933 7.55734 2.868 7.92001C2.84666 8.28268 2.84133 8.56534 2.852 8.76801C2.86266 8.97068 2.86266 9.28534 2.852 9.71201C2.84133 10.1387 2.84133 10.368 2.852 10.4C2.86266 10.432 2.86266 10.6613 2.852 11.088C2.84133 11.5147 2.84133 11.8293 2.852 12.032C2.86266 12.2347 2.868 12.5173 2.868 12.88C2.868 13.2427 2.9 13.552 2.964 13.808L3.124 14.448C3.252 14.7467 3.428 15.008 3.652 15.232C3.876 15.456 4.13733 15.6267 4.436 15.744C4.60666 15.808 4.82 15.8667 5.076 15.92C5.332 15.9733 5.636 16 5.988 16C6.34 16 6.628 16.0107 6.852 16.032C7.076 16.0533 7.39066 16.0533 7.796 16.032C8.20133 16.0107 8.43066 16.0107 8.484 16.032C8.53733 16.0533 8.76133 16.0533 9.156 16.032C9.55066 16.0107 9.86533 16.0107 10.1 16.032C10.3347 16.0533 10.6227 16.0427 10.964 16C11.3053 15.9573 11.6147 15.9307 11.892 15.92C12.1693 15.9093 12.3773 15.8507 12.516 15.744C12.8147 15.6267 13.0813 15.456 13.316 15.232C13.5507 15.008 13.7213 14.7467 13.828 14.448C13.892 14.2773 13.9453 14.064 13.988 13.808C14.0307 13.552 14.0627 13.2427 14.084 12.88C14.1053 12.5173 14.1107 12.2347 14.1 12.032C14.0893 11.8293 14.0893 11.5147 14.1 11.088C14.1107 10.6613 14.1107 10.432 14.1 10.4C14.0893 10.368 14.0893 10.1387 14.1 9.71201C14.1107 9.28534 14.1107 8.97068 14.1 8.76801C14.0893 8.56534 14.084 8.28268 14.084 7.92001C14.084 7.55734 14.052 7.24801 13.988 6.99201L13.828 6.35201C13.7107 6.05334 13.54 5.79201 13.316 5.56801C13.092 5.34401 12.8253 5.17334 12.516 5.05601C12.3453 4.99201 12.1373 4.93334 11.892 4.88001C11.6467 4.82668 11.3373 4.80001 10.964 4.80001C10.5907 4.80001 10.3027 4.78934 10.1 4.76801C9.89733 4.74668 9.58266 4.74668 9.156 4.76801C8.72933 4.78934 8.50533 4.78934 8.484 4.76801ZM15.332 10.4C15.332 11.7653 15.316 12.7093 15.284 13.232C15.2307 14.4693 14.8627 15.4293 14.18 16.112C13.4973 16.7947 12.5427 17.1627 11.316 17.216C10.7827 17.248 9.83866 17.264 8.484 17.264C7.12933 17.264 6.18533 17.248 5.652 17.216C4.41466 17.152 3.45466 16.784 2.772 16.112C2.08933 15.44 1.72133 14.48 1.668 13.232C1.636 12.7093 1.62 11.7653 1.62 10.4C1.62 9.03468 1.636 8.09068 1.668 7.56801C1.72133 6.33068 2.08933 5.37068 2.772 4.68801C3.45466 4.00534 4.41466 3.63734 5.652 3.58401C6.17466 3.55201 7.11866 3.53601 8.484 3.53601C9.84933 3.53601 10.7933 3.55201 11.316 3.58401C12.5533 3.64801 13.508 4.01601 14.18 4.68801C14.852 5.36001 15.22 6.32001 15.284 7.56801C15.316 8.09068 15.332 9.03468 15.332 10.4Z" fill="#5A6851"/>
</svg>
